<?xml version="1.0" encoding="utf-8"?>
<!-- Generator: Adobe Illustrator 22.1.0, SVG Export Plug-In . SVG Version: 6.00 Build 0)  -->
<svg version="1.1" id="Layer_1" xmlns="http://www.w3.org/2000/svg" xmlns:xlink="http://www.w3.org/1999/xlink" x="0px" y="0px"
	 viewBox="0 0 1366 768" style="enable-background:new 0 0 1366 768;" xml:space="preserve">
<style type="text/css">
	.st0{fill:#FF8D8A;}
</style>
<g>
	<g>
		<path class="st0" d="M1223.2,225.3H141.8c-13.1,0-23.8-10.6-23.8-23.8v-62.2c0-13.1,10.6-23.8,23.8-23.8h1081.5
			c13.1,0,23.8,10.6,23.8,23.8v62.2C1247,214.7,1236.4,225.3,1223.2,225.3z"/>
	</g>
	<g>
		<path class="st0" d="M1223.2,438.4H141.8c-13.1,0-23.8-10.6-23.8-23.8v-62.2c0-13.1,10.6-23.8,23.8-23.8h1081.5
			c13.1,0,23.8,10.6,23.8,23.8v62.2C1247,427.7,1236.4,438.4,1223.2,438.4z"/>
	</g>
	<g>
		<path class="st0" d="M1223.2,651.4H141.8c-13.1,0-23.8-10.6-23.8-23.8v-62.2c0-13.1,10.6-23.8,23.8-23.8h1081.5
			c13.1,0,23.8,10.6,23.8,23.8v62.2C1247,640.8,1236.4,651.4,1223.2,651.4z"/>
	</g>
</g>
</svg>
